<mxfile host="app.diagrams.net" modified="2020-11-13T02:20:59.457Z" agent="5.0 (Windows)" etag="XUDA_osUdhhXV9M2AaCM" version="13.9.7" type="github">
  <diagram id="C5RBs43oDa-KdzZeNtuy" name="Page-1">
    <mxGraphModel dx="2249" dy="1971" grid="1" gridSize="10" guides="1" tooltips="1" connect="1" arrows="1" fold="1" page="1" pageScale="1" pageWidth="827" pageHeight="1169" math="0" shadow="0">
      <root>
        <mxCell id="WIyWlLk6GJQsqaUBKTNV-0" />
        <mxCell id="WIyWlLk6GJQsqaUBKTNV-1" parent="WIyWlLk6GJQsqaUBKTNV-0" />
        <mxCell id="M2vOY5EWQ9TmQaOvTjVT-2" value="" style="edgeStyle=orthogonalEdgeStyle;rounded=0;orthogonalLoop=1;jettySize=auto;html=1;" edge="1" parent="WIyWlLk6GJQsqaUBKTNV-1" source="M2vOY5EWQ9TmQaOvTjVT-0" target="M2vOY5EWQ9TmQaOvTjVT-1">
          <mxGeometry relative="1" as="geometry" />
        </mxCell>
        <mxCell id="M2vOY5EWQ9TmQaOvTjVT-0" value="Start" style="strokeWidth=2;html=1;shape=mxgraph.flowchart.start_2;whiteSpace=wrap;" vertex="1" parent="WIyWlLk6GJQsqaUBKTNV-1">
          <mxGeometry x="64.5" width="100" height="100" as="geometry" />
        </mxCell>
        <mxCell id="M2vOY5EWQ9TmQaOvTjVT-4" value="" style="edgeStyle=orthogonalEdgeStyle;rounded=0;orthogonalLoop=1;jettySize=auto;html=1;" edge="1" parent="WIyWlLk6GJQsqaUBKTNV-1" source="M2vOY5EWQ9TmQaOvTjVT-1" target="M2vOY5EWQ9TmQaOvTjVT-3">
          <mxGeometry relative="1" as="geometry" />
        </mxCell>
        <mxCell id="M2vOY5EWQ9TmQaOvTjVT-1" value="char secret[], char guess, string output[]" style="whiteSpace=wrap;html=1;strokeWidth=2;" vertex="1" parent="WIyWlLk6GJQsqaUBKTNV-1">
          <mxGeometry x="54.5" y="200" width="120" height="60" as="geometry" />
        </mxCell>
        <mxCell id="M2vOY5EWQ9TmQaOvTjVT-6" value="" style="edgeStyle=orthogonalEdgeStyle;rounded=0;orthogonalLoop=1;jettySize=auto;html=1;" edge="1" parent="WIyWlLk6GJQsqaUBKTNV-1" source="M2vOY5EWQ9TmQaOvTjVT-3" target="M2vOY5EWQ9TmQaOvTjVT-5">
          <mxGeometry relative="1" as="geometry" />
        </mxCell>
        <mxCell id="M2vOY5EWQ9TmQaOvTjVT-3" value="cin guess" style="shape=parallelogram;perimeter=parallelogramPerimeter;whiteSpace=wrap;html=1;fixedSize=1;strokeWidth=2;" vertex="1" parent="WIyWlLk6GJQsqaUBKTNV-1">
          <mxGeometry x="54.5" y="340" width="120" height="60" as="geometry" />
        </mxCell>
        <mxCell id="M2vOY5EWQ9TmQaOvTjVT-12" value="" style="edgeStyle=orthogonalEdgeStyle;rounded=0;orthogonalLoop=1;jettySize=auto;html=1;" edge="1" parent="WIyWlLk6GJQsqaUBKTNV-1" source="M2vOY5EWQ9TmQaOvTjVT-5" target="M2vOY5EWQ9TmQaOvTjVT-11">
          <mxGeometry relative="1" as="geometry" />
        </mxCell>
        <mxCell id="M2vOY5EWQ9TmQaOvTjVT-5" value="int trial = 6" style="whiteSpace=wrap;html=1;strokeWidth=2;" vertex="1" parent="WIyWlLk6GJQsqaUBKTNV-1">
          <mxGeometry x="54.5" y="480" width="120" height="60" as="geometry" />
        </mxCell>
        <mxCell id="M2vOY5EWQ9TmQaOvTjVT-14" value="" style="edgeStyle=orthogonalEdgeStyle;rounded=0;orthogonalLoop=1;jettySize=auto;html=1;" edge="1" parent="WIyWlLk6GJQsqaUBKTNV-1" source="M2vOY5EWQ9TmQaOvTjVT-11" target="M2vOY5EWQ9TmQaOvTjVT-13">
          <mxGeometry relative="1" as="geometry" />
        </mxCell>
        <mxCell id="M2vOY5EWQ9TmQaOvTjVT-11" value="int count = 0; int attempts = 0;" style="whiteSpace=wrap;html=1;strokeWidth=2;" vertex="1" parent="WIyWlLk6GJQsqaUBKTNV-1">
          <mxGeometry x="54.5" y="620" width="120" height="60" as="geometry" />
        </mxCell>
        <mxCell id="M2vOY5EWQ9TmQaOvTjVT-16" value="&lt;div&gt;y&lt;/div&gt;" style="edgeStyle=orthogonalEdgeStyle;rounded=0;orthogonalLoop=1;jettySize=auto;html=1;" edge="1" parent="WIyWlLk6GJQsqaUBKTNV-1" source="M2vOY5EWQ9TmQaOvTjVT-13" target="M2vOY5EWQ9TmQaOvTjVT-15">
          <mxGeometry relative="1" as="geometry" />
        </mxCell>
        <mxCell id="M2vOY5EWQ9TmQaOvTjVT-20" value="n" style="edgeStyle=orthogonalEdgeStyle;rounded=0;orthogonalLoop=1;jettySize=auto;html=1;" edge="1" parent="WIyWlLk6GJQsqaUBKTNV-1" source="M2vOY5EWQ9TmQaOvTjVT-13">
          <mxGeometry relative="1" as="geometry">
            <mxPoint x="114.5" y="1005" as="targetPoint" />
          </mxGeometry>
        </mxCell>
        <mxCell id="M2vOY5EWQ9TmQaOvTjVT-13" value="if find(guess, secret[])" style="rhombus;whiteSpace=wrap;html=1;strokeWidth=2;" vertex="1" parent="WIyWlLk6GJQsqaUBKTNV-1">
          <mxGeometry x="31.5" y="760" width="166" height="130" as="geometry" />
        </mxCell>
        <mxCell id="M2vOY5EWQ9TmQaOvTjVT-18" value="" style="edgeStyle=orthogonalEdgeStyle;rounded=0;orthogonalLoop=1;jettySize=auto;html=1;" edge="1" parent="WIyWlLk6GJQsqaUBKTNV-1" source="M2vOY5EWQ9TmQaOvTjVT-15" target="M2vOY5EWQ9TmQaOvTjVT-17">
          <mxGeometry relative="1" as="geometry" />
        </mxCell>
        <mxCell id="M2vOY5EWQ9TmQaOvTjVT-15" value="count += 1" style="whiteSpace=wrap;html=1;strokeWidth=2;" vertex="1" parent="WIyWlLk6GJQsqaUBKTNV-1">
          <mxGeometry x="300.5" y="795" width="120" height="60" as="geometry" />
        </mxCell>
        <mxCell id="M2vOY5EWQ9TmQaOvTjVT-29" style="edgeStyle=orthogonalEdgeStyle;rounded=0;orthogonalLoop=1;jettySize=auto;html=1;exitX=0.5;exitY=1;exitDx=0;exitDy=0;entryX=1;entryY=0.5;entryDx=0;entryDy=0;" edge="1" parent="WIyWlLk6GJQsqaUBKTNV-1" source="M2vOY5EWQ9TmQaOvTjVT-17" target="M2vOY5EWQ9TmQaOvTjVT-27">
          <mxGeometry relative="1" as="geometry" />
        </mxCell>
        <mxCell id="M2vOY5EWQ9TmQaOvTjVT-17" value="cin guess;" style="shape=parallelogram;perimeter=parallelogramPerimeter;whiteSpace=wrap;html=1;fixedSize=1;strokeWidth=2;" vertex="1" parent="WIyWlLk6GJQsqaUBKTNV-1">
          <mxGeometry x="300.5" y="935" width="120" height="60" as="geometry" />
        </mxCell>
        <mxCell id="M2vOY5EWQ9TmQaOvTjVT-24" value="" style="edgeStyle=orthogonalEdgeStyle;rounded=0;orthogonalLoop=1;jettySize=auto;html=1;exitX=0.5;exitY=1;exitDx=0;exitDy=0;entryX=0.5;entryY=0;entryDx=0;entryDy=0;" edge="1" parent="WIyWlLk6GJQsqaUBKTNV-1" source="M2vOY5EWQ9TmQaOvTjVT-33" target="M2vOY5EWQ9TmQaOvTjVT-32">
          <mxGeometry relative="1" as="geometry">
            <mxPoint x="113.5" y="1090" as="sourcePoint" />
            <mxPoint x="113.5" y="1175" as="targetPoint" />
          </mxGeometry>
        </mxCell>
        <mxCell id="M2vOY5EWQ9TmQaOvTjVT-26" value="" style="edgeStyle=orthogonalEdgeStyle;rounded=0;orthogonalLoop=1;jettySize=auto;html=1;" edge="1" parent="WIyWlLk6GJQsqaUBKTNV-1" target="M2vOY5EWQ9TmQaOvTjVT-25">
          <mxGeometry relative="1" as="geometry">
            <mxPoint x="114.5" y="1235" as="sourcePoint" />
          </mxGeometry>
        </mxCell>
        <mxCell id="M2vOY5EWQ9TmQaOvTjVT-28" value="" style="edgeStyle=orthogonalEdgeStyle;rounded=0;orthogonalLoop=1;jettySize=auto;html=1;" edge="1" parent="WIyWlLk6GJQsqaUBKTNV-1" source="M2vOY5EWQ9TmQaOvTjVT-25" target="M2vOY5EWQ9TmQaOvTjVT-27">
          <mxGeometry relative="1" as="geometry" />
        </mxCell>
        <mxCell id="M2vOY5EWQ9TmQaOvTjVT-25" value="cin guess" style="shape=parallelogram;perimeter=parallelogramPerimeter;whiteSpace=wrap;html=1;fixedSize=1;strokeWidth=2;" vertex="1" parent="WIyWlLk6GJQsqaUBKTNV-1">
          <mxGeometry x="54.5" y="1310" width="120" height="60" as="geometry" />
        </mxCell>
        <mxCell id="M2vOY5EWQ9TmQaOvTjVT-31" value="" style="edgeStyle=orthogonalEdgeStyle;rounded=0;orthogonalLoop=1;jettySize=auto;html=1;" edge="1" parent="WIyWlLk6GJQsqaUBKTNV-1" source="M2vOY5EWQ9TmQaOvTjVT-27" target="M2vOY5EWQ9TmQaOvTjVT-30">
          <mxGeometry relative="1" as="geometry" />
        </mxCell>
        <mxCell id="M2vOY5EWQ9TmQaOvTjVT-27" value="" style="ellipse;whiteSpace=wrap;html=1;strokeWidth=2;" vertex="1" parent="WIyWlLk6GJQsqaUBKTNV-1">
          <mxGeometry x="101.5" y="1450" width="26" height="17.5" as="geometry" />
        </mxCell>
        <mxCell id="M2vOY5EWQ9TmQaOvTjVT-34" value="y" style="edgeStyle=orthogonalEdgeStyle;rounded=0;orthogonalLoop=1;jettySize=auto;html=1;exitX=0;exitY=0.5;exitDx=0;exitDy=0;entryX=0;entryY=0.5;entryDx=0;entryDy=0;" edge="1" parent="WIyWlLk6GJQsqaUBKTNV-1" source="M2vOY5EWQ9TmQaOvTjVT-30" target="M2vOY5EWQ9TmQaOvTjVT-13">
          <mxGeometry relative="1" as="geometry" />
        </mxCell>
        <mxCell id="M2vOY5EWQ9TmQaOvTjVT-36" value="n" style="edgeStyle=orthogonalEdgeStyle;rounded=0;orthogonalLoop=1;jettySize=auto;html=1;" edge="1" parent="WIyWlLk6GJQsqaUBKTNV-1" source="M2vOY5EWQ9TmQaOvTjVT-30" target="M2vOY5EWQ9TmQaOvTjVT-35">
          <mxGeometry relative="1" as="geometry" />
        </mxCell>
        <mxCell id="M2vOY5EWQ9TmQaOvTjVT-30" value="while attempts &amp;lt; trials and count &amp;lt;= sizeof(secret)" style="whiteSpace=wrap;html=1;strokeWidth=2;" vertex="1" parent="WIyWlLk6GJQsqaUBKTNV-1">
          <mxGeometry x="54.5" y="1526.25" width="120" height="60" as="geometry" />
        </mxCell>
        <mxCell id="M2vOY5EWQ9TmQaOvTjVT-32" value="attempts += 1" style="whiteSpace=wrap;html=1;strokeWidth=2;" vertex="1" parent="WIyWlLk6GJQsqaUBKTNV-1">
          <mxGeometry x="54.5" y="1190" width="120" height="60" as="geometry" />
        </mxCell>
        <mxCell id="M2vOY5EWQ9TmQaOvTjVT-33" value="cout output[attempts]" style="shape=parallelogram;perimeter=parallelogramPerimeter;whiteSpace=wrap;html=1;fixedSize=1;strokeWidth=2;" vertex="1" parent="WIyWlLk6GJQsqaUBKTNV-1">
          <mxGeometry x="21.5" y="1000" width="186" height="85" as="geometry" />
        </mxCell>
        <mxCell id="M2vOY5EWQ9TmQaOvTjVT-38" value="y" style="edgeStyle=orthogonalEdgeStyle;rounded=0;orthogonalLoop=1;jettySize=auto;html=1;entryX=0;entryY=0.5;entryDx=0;entryDy=0;" edge="1" parent="WIyWlLk6GJQsqaUBKTNV-1" source="M2vOY5EWQ9TmQaOvTjVT-35" target="M2vOY5EWQ9TmQaOvTjVT-37">
          <mxGeometry relative="1" as="geometry">
            <mxPoint x="373.5" y="1791.875" as="targetPoint" />
            <Array as="points" />
          </mxGeometry>
        </mxCell>
        <mxCell id="M2vOY5EWQ9TmQaOvTjVT-40" value="n" style="edgeStyle=orthogonalEdgeStyle;rounded=0;orthogonalLoop=1;jettySize=auto;html=1;" edge="1" parent="WIyWlLk6GJQsqaUBKTNV-1" source="M2vOY5EWQ9TmQaOvTjVT-35" target="M2vOY5EWQ9TmQaOvTjVT-39">
          <mxGeometry relative="1" as="geometry" />
        </mxCell>
        <mxCell id="M2vOY5EWQ9TmQaOvTjVT-35" value="if count == sizeof(secret) and attempts &amp;lt; trials" style="rhombus;whiteSpace=wrap;html=1;strokeWidth=2;" vertex="1" parent="WIyWlLk6GJQsqaUBKTNV-1">
          <mxGeometry x="-30" y="1670" width="289" height="270" as="geometry" />
        </mxCell>
        <mxCell id="M2vOY5EWQ9TmQaOvTjVT-37" value="cout you won" style="shape=parallelogram;perimeter=parallelogramPerimeter;whiteSpace=wrap;html=1;fixedSize=1;strokeWidth=2;" vertex="1" parent="WIyWlLk6GJQsqaUBKTNV-1">
          <mxGeometry x="380" y="1774.9950000000001" width="120" height="60" as="geometry" />
        </mxCell>
        <mxCell id="M2vOY5EWQ9TmQaOvTjVT-42" value="" style="edgeStyle=orthogonalEdgeStyle;rounded=0;orthogonalLoop=1;jettySize=auto;html=1;" edge="1" parent="WIyWlLk6GJQsqaUBKTNV-1" source="M2vOY5EWQ9TmQaOvTjVT-39" target="M2vOY5EWQ9TmQaOvTjVT-41">
          <mxGeometry relative="1" as="geometry" />
        </mxCell>
        <mxCell id="M2vOY5EWQ9TmQaOvTjVT-39" value="cout you lost" style="whiteSpace=wrap;html=1;strokeWidth=2;" vertex="1" parent="WIyWlLk6GJQsqaUBKTNV-1">
          <mxGeometry x="54.5" y="2000.005" width="120" height="60" as="geometry" />
        </mxCell>
        <mxCell id="M2vOY5EWQ9TmQaOvTjVT-41" value="end" style="ellipse;whiteSpace=wrap;html=1;strokeWidth=2;" vertex="1" parent="WIyWlLk6GJQsqaUBKTNV-1">
          <mxGeometry x="54.5" y="2130.005" width="120" height="80" as="geometry" />
        </mxCell>
        <mxCell id="M2vOY5EWQ9TmQaOvTjVT-46" value="" style="edgeStyle=orthogonalEdgeStyle;rounded=0;orthogonalLoop=1;jettySize=auto;html=1;" edge="1" parent="WIyWlLk6GJQsqaUBKTNV-1" source="M2vOY5EWQ9TmQaOvTjVT-44" target="M2vOY5EWQ9TmQaOvTjVT-45">
          <mxGeometry relative="1" as="geometry" />
        </mxCell>
        <mxCell id="M2vOY5EWQ9TmQaOvTjVT-44" value="bool find(guess, secret[])" style="shape=process;whiteSpace=wrap;html=1;backgroundOutline=1;" vertex="1" parent="WIyWlLk6GJQsqaUBKTNV-1">
          <mxGeometry x="360" y="20" width="120" height="60" as="geometry" />
        </mxCell>
        <mxCell id="M2vOY5EWQ9TmQaOvTjVT-48" value="y" style="edgeStyle=orthogonalEdgeStyle;rounded=0;orthogonalLoop=1;jettySize=auto;html=1;entryX=0;entryY=0.5;entryDx=0;entryDy=0;" edge="1" parent="WIyWlLk6GJQsqaUBKTNV-1" source="M2vOY5EWQ9TmQaOvTjVT-45" target="M2vOY5EWQ9TmQaOvTjVT-55">
          <mxGeometry relative="1" as="geometry">
            <mxPoint x="540" y="215" as="targetPoint" />
          </mxGeometry>
        </mxCell>
        <mxCell id="M2vOY5EWQ9TmQaOvTjVT-61" value="n" style="edgeStyle=orthogonalEdgeStyle;rounded=0;orthogonalLoop=1;jettySize=auto;html=1;exitX=0.5;exitY=1;exitDx=0;exitDy=0;entryX=0.5;entryY=0;entryDx=0;entryDy=0;" edge="1" parent="WIyWlLk6GJQsqaUBKTNV-1" source="M2vOY5EWQ9TmQaOvTjVT-45" target="M2vOY5EWQ9TmQaOvTjVT-49">
          <mxGeometry relative="1" as="geometry" />
        </mxCell>
        <mxCell id="M2vOY5EWQ9TmQaOvTjVT-45" value="if guess == secret[i]" style="rhombus;whiteSpace=wrap;html=1;" vertex="1" parent="WIyWlLk6GJQsqaUBKTNV-1">
          <mxGeometry x="370" y="160" width="100" height="110" as="geometry" />
        </mxCell>
        <mxCell id="M2vOY5EWQ9TmQaOvTjVT-51" value="y" style="edgeStyle=orthogonalEdgeStyle;rounded=0;orthogonalLoop=1;jettySize=auto;html=1;exitX=0;exitY=0.5;exitDx=0;exitDy=0;entryX=0;entryY=0.5;entryDx=0;entryDy=0;" edge="1" parent="WIyWlLk6GJQsqaUBKTNV-1" source="M2vOY5EWQ9TmQaOvTjVT-49" target="M2vOY5EWQ9TmQaOvTjVT-45">
          <mxGeometry relative="1" as="geometry" />
        </mxCell>
        <mxCell id="M2vOY5EWQ9TmQaOvTjVT-57" value="n" style="edgeStyle=orthogonalEdgeStyle;rounded=0;orthogonalLoop=1;jettySize=auto;html=1;" edge="1" parent="WIyWlLk6GJQsqaUBKTNV-1" source="M2vOY5EWQ9TmQaOvTjVT-49" target="M2vOY5EWQ9TmQaOvTjVT-56">
          <mxGeometry relative="1" as="geometry" />
        </mxCell>
        <mxCell id="M2vOY5EWQ9TmQaOvTjVT-49" value="for (int i = 0; i &amp;lt; sizeof(secret[]); i++)" style="whiteSpace=wrap;html=1;" vertex="1" parent="WIyWlLk6GJQsqaUBKTNV-1">
          <mxGeometry x="360" y="375" width="120" height="60" as="geometry" />
        </mxCell>
        <mxCell id="M2vOY5EWQ9TmQaOvTjVT-55" value="&lt;div&gt;return True&lt;/div&gt;" style="shape=parallelogram;perimeter=parallelogramPerimeter;whiteSpace=wrap;html=1;fixedSize=1;" vertex="1" parent="WIyWlLk6GJQsqaUBKTNV-1">
          <mxGeometry x="543" y="185" width="120" height="60" as="geometry" />
        </mxCell>
        <mxCell id="M2vOY5EWQ9TmQaOvTjVT-59" value="" style="edgeStyle=orthogonalEdgeStyle;rounded=0;orthogonalLoop=1;jettySize=auto;html=1;" edge="1" parent="WIyWlLk6GJQsqaUBKTNV-1" source="M2vOY5EWQ9TmQaOvTjVT-56" target="M2vOY5EWQ9TmQaOvTjVT-58">
          <mxGeometry relative="1" as="geometry" />
        </mxCell>
        <mxCell id="M2vOY5EWQ9TmQaOvTjVT-56" value="return False" style="shape=parallelogram;perimeter=parallelogramPerimeter;whiteSpace=wrap;html=1;fixedSize=1;" vertex="1" parent="WIyWlLk6GJQsqaUBKTNV-1">
          <mxGeometry x="360" y="515" width="120" height="60" as="geometry" />
        </mxCell>
        <mxCell id="M2vOY5EWQ9TmQaOvTjVT-58" value="end" style="ellipse;whiteSpace=wrap;html=1;" vertex="1" parent="WIyWlLk6GJQsqaUBKTNV-1">
          <mxGeometry x="360" y="645" width="120" height="80" as="geometry" />
        </mxCell>
      </root>
    </mxGraphModel>
  </diagram>
</mxfile>
